#!OML:ASF F:\VICON\USERDATA\INSTALL\rory3\rory3.ASF
:FULLY-SPECIFIED
:DEGREES
3256
root 12.4807 18.087 1.30501 718.638 -12.2365 724.995
lowerback 10.4391 0.238024 -4.32071
upperback 0.417776 -0.184135 0.304027
thorax -5.41115 0.0201664 2.78263
lowerneck -19.2672 -5.80919 -10.8274
upperneck 27.8894 -7.29266 7.80529
head 13.3105 -3.35879 3.62707
rclavicle -1.72446e-014 1.19271e-015
rhumerus -35.8222 -11.1612 -81.0525
rradius 30.2751
rwrist 6.89264
rhand -15.2447 8.77062
rfingers 7.12502
rthumb 10.9288 -20.9249
lclavicle -1.72446e-014 1.19271e-015
lhumerus -33.5818 2.91357 84.2657
lradius 31.0794
lwrist -5.99746
lhand -19.2099 24.2532
lfingers 7.12502
lthumb 7.1025 54.114
rfemur -20.8416 -9.44418 21.1866
rtibia 26.5046
rfoot -4.85024 -8.5348
rtoes 9.26102
lfemur 12.2671 -5.07623 -24.1022
ltibia 22.891
lfoot 3.31979 -0.00222572
ltoes -25.776
3257
root 12.4135 18.1004 1.43316 718.747 -12.756 724.811
lowerback 10.3049 0.291527 -4.08035
upperback 0.355243 -0.079036 0.311001
thorax -5.41002 0.0669594 2.63806
lowerneck -19.4364 -5.81226 -10.7077
upperneck 27.9499 -7.29369 7.70932
head 13.3613 -3.35569 3.56709
rclavicle 3.77194e-014 -1.07344e-014
rhumerus -35.9031 -10.8138 -81.2486
rradius 30.4718
rwrist 6.73647
rhand -15.0364 8.73255
rfingers 7.12502
rthumb 11.1296 -20.9523
lclavicle 3.77194e-014 -1.07344e-014
lhumerus -33.8609 2.86615 84.1858
lradius 30.7203
lwrist -6.34433
lhand -19.4536 23.8081
lfingers 7.12502
lthumb 6.86731 53.6767
rfemur -20.2568 -9.13481 21.5188
rtibia 26.1442
rfoot -5.1042 -8.31819
rtoes 9.57383
lfemur 11.3094 -4.8005 -23.829
ltibia 24.982
lfoot 5.11088 -0.679471
ltoes -26.5898
3258
root 12.346 18.1163 1.56172 718.787 -13.2506 724.547
lowerback 10.288 0.327174 -3.76558
upperback 0.257597 0.00733803 0.36071
thorax -5.50948 0.105625 2.49987
lowerneck -19.3743 -5.80265 -10.6837
upperneck 27.9603 -7.29041 7.68601
head 13.3499 -3.35709 3.55523
rclavicle 8.44835e-015 4.37326e-015
rhumerus -36.0819 -10.4837 -81.3621
rradius 30.6578
rwrist 6.76123
rhand -14.8532 8.72697
rfingers 7.12502
rthumb 11.3064 -20.9483
lclavicle 8.44835e-015 4.37326e-015
lhumerus -34.3771 2.91693 84.1166
lradius 30.6126
lwrist -6.68468
lhand -19.1458 23.7718
lfingers 7.12502
lthumb 7.16442 53.6306
rfemur -19.5715 -8.93565 21.9584
rtibia 25.7714
rfoot -5.30426 -8.0809
rtoes 8.96886
lfemur 10.3479 -4.52849 -23.4474
ltibia 27.1071
lfoot 6.91617 -1.21205
ltoes -26.099
3259
root 12.2802 18.1304 1.68512 718.834 -13.7277 724.231
lowerback 10.2862 0.359409 -3.39791
upperback 0.180824 0.0970549 0.437011
thorax -5.59468 0.143794 2.3591
lowerneck -19.2698 -5.82179 -10.7409
upperneck 27.9398 -7.32002 7.71258
head 13.3268 -3.37582 3.57088
rclavicle 2.04748e-014 1.59028e-015
rhumerus -36.3362 -9.95012 -81.5566
rradius 31.0609
rwrist 6.61378
rhand -14.9784 8.72056
rfingers 7.12502
rthumb 11.1856 -20.9613
lclavicle 2.04748e-014 1.59028e-015
lhumerus -34.8219 2.94065 84.1107
lradius 30.523
lwrist -6.74781
lhand -19.0017 23.9547
lfingers 7.12502
lthumb 7.30347 53.8086
rfemur -18.8891 -8.83254 22.4806
rtibia 25.3444
rfoot -5.39985 -7.81393
rtoes 7.83334
lfemur 9.33713 -4.24817 -22.9967
ltibia 29.2688
lfoot 8.60731 -1.49781
ltoes -25.4522
3260
root 12.2116 18.1432 1.81147 718.807 -14.207 723.944
lowerback 10.2716 0.406041 -3.11279
upperback 0.186198 0.197863 0.514022
thorax -5.5864 0.186538 2.2638
lowerneck -19.2456 -5.82548 -10.8001
upperneck 27.8491 -7.32622 7.78541
head 13.2908 -3.37582 3.60694
rclavicle -2.6339e-015 3.97569e-015
rhumerus -36.6562 -9.29959 -81.8348
rradius 31.8376
rwrist 6.21373
rhand -15.0464 8.5649
rfingers 7.12502
rthumb 11.12 -21.1205
lclavicle -2.6339e-015 3.97569e-015
lhumerus -35.0941 2.86114 84.1372
lradius 30.3667
lwrist -6.8082
lhand -19.1362 23.758
lfingers 7.12502
lthumb 7.17365 53.6164
rfemur -18.043 -8.6138 22.919
rtibia 24.8119
rfoot -5.45189 -7.61674
rtoes 7.97101
lfemur 8.37513 -3.93983 -22.5818
ltibia 31.5285
lfoot 10.1071 -1.76604
ltoes -21.9877
3261
root 12.1427 18.1591 1.93495 718.8 -14.644 723.605
lowerback 10.3368 0.419439 -2.77493
upperback 0.151703 0.25792 0.591727
thorax -5.66158 0.209592 2.14559
lowerneck -19.2831 -5.77762 -10.7748
upperneck 27.8758 -7.27596 7.82085
head 13.304 -3.34648 3.62624
rclavicle -6.72389e-014 -5.56597e-015
rhumerus -37.1593 -8.55805 -82.1704
rradius 32.8674
rwrist 5.72731
rhand -14.9563 8.48811
rfingers 7.12502
rthumb 11.2069 -21.1926
lclavicle -6.72389e-014 -5.56597e-015
lhumerus -35.452 3.01535 84.0481
lradius 30.2564
lwrist -7.25869
lhand -19.1602 23.6058
lfingers 7.12502
lthumb 7.15053 53.465
rfemur -17.129 -8.2204 23.3802
rtibia 24.2044
rfoot -5.47729 -7.62624
rtoes 8.94356
lfemur 7.31832 -3.71228 -22.1111
ltibia 33.8786
lfoot 11.498 -2.14339
ltoes -18.7504
3262
root 12.0771 18.1747 2.04901 718.837 -15.0021 723.163
lowerback 10.4703 0.393073 -2.32269
upperback 0.119419 0.280897 0.718794
thorax -5.77002 0.211994 2.02011
lowerneck -19.3431 -5.73719 -10.7943
upperneck 27.8903 -7.21194 7.83977
head 13.3167 -3.31735 3.64844
rclavicle -1.26725e-014 1.23246e-014
rhumerus -37.3766 -7.90918 -82.381
rradius 33.4516
rwrist 5.40271
rhand -14.7363 8.50187
rfingers 7.12502
rthumb 11.4191 -21.1672
lclavicle -1.26725e-014 1.23246e-014
lhumerus -35.8067 3.2787 84.0087
lradius 30.2893
lwrist -7.70581
lhand -18.8517 24.1629
lfingers 7.12502
lthumb 7.44829 54.0118
rfemur -16.2383 -7.84124 23.9491
rtibia 23.5603
rfoot -5.52743 -7.7169
rtoes 9.4755
lfemur 6.15022 -3.45359 -21.4691
ltibia 36.2733
lfoot 12.8668 -2.98899
ltoes -16.2924
3263
root 12.0144 18.1865 2.16191 718.884 -15.416 722.729
lowerback 10.5735 0.390491 -1.85328
upperback 0.147286 0.338955 0.829451
thorax -5.79927 0.228899 1.86215
lowerneck -19.4418 -5.7251 -10.7701
upperneck 27.8001 -7.18579 7.84154
head 13.2956 -3.30028 3.64609
rclavicle 4.63168e-014 1.59028e-015
rhumerus -37.186 -7.39232 -82.5334
rradius 33.5563
rwrist 5.35225
rhand -14.7308 8.57196
rfingers 7.12502
rthumb 11.4243 -21.0968
lclavicle 4.63168e-014 1.59028e-015
lhumerus -35.9761 3.25705 84.0855
lradius 30.2638
lwrist -7.67817
lhand -18.7642 24.7915
lfingers 7.12502
lthumb 7.53275 54.6374
rfemur -15.3718 -7.62437 24.5139
rtibia 22.8911
rfoot -5.60591 -7.57018
rtoes 9.56524
lfemur 4.94723 -3.13687 -20.8392
ltibia 38.6727
lfoot 14.1565 -3.81934
ltoes -12.816
3264
root 11.952 18.1993 2.27927 718.93 -15.872 722.346
lowerback 10.6592 0.39965 -1.43746
upperback 0.14933 0.405641 0.912236
thorax -5.8458 0.251468 1.70378
lowerneck -19.4784 -5.67643 -10.7529
upperneck 27.7221 -7.13411 7.91058
head 13.2667 -3.26584 3.67783
rclavicle 1.19768e-014 -4.77083e-015
rhumerus -37.0487 -6.83986 -82.755
rradius 33.7362
rwrist 5.23721
rhand -15.0085 8.37646
rfingers 7.12502
rthumb 11.1565 -21.3069
lclavicle 1.19768e-014 -4.77083e-015
lhumerus -36.1763 3.17139 84.1294
lradius 30.1245
lwrist -7.66623
lhand -18.9934 24.7299
lfingers 7.12502
lthumb 7.3115 54.5836
rfemur -14.4787 -7.55234 25.0135
rtibia 22.1725
rfoot -5.63136 -7.23756
rtoes 9.37815
lfemur 3.74533 -2.86175 -20.3318
ltibia 41.0461
lfoot 15.4013 -4.43335
ltoes -8.17268
